<svg width="123" height="123" viewBox="0 0 123 123" fill="none" xmlns="http://www.w3.org/2000/svg">
<path fill-rule="evenodd" clip-rule="evenodd" d="M93.68 0.407715C111.375 0.407715 122.853 11.8858 122.853 29.5812V93.667C122.853 111.362 111.375 122.841 93.68 122.841H29.5942C11.8987 122.841 0.420654 111.362 0.420654 93.667V29.5812C0.420654 11.8858 11.8987 0.407715 29.5942 0.407715H93.68Z" fill="#1E1E1F"/>
<path fill-rule="evenodd" clip-rule="evenodd" d="M61.637 114.678C90.938 114.678 114.691 90.9251 114.691 61.6241C114.691 32.323 90.938 8.56982 61.637 8.56982C32.336 8.56982 8.58276 32.323 8.58276 61.6241C8.58276 90.9251 32.336 114.678 61.637 114.678Z" fill="white"/>
<path d="M57.5843 25.9143H59.0027V16.5689H57.5714L55.1104 18.3176V19.7424L57.552 18.0067H57.5843V25.9143ZM61.1934 19.3085V19.3214H62.5664V19.3019C62.5664 18.3305 63.3371 17.5923 64.3604 17.5923C65.3319 17.5923 66.0831 18.2528 66.0831 19.0817C66.0831 19.8136 65.7852 20.3058 64.6453 21.491L61.2712 24.93V25.9143H67.6633V24.6903H63.227V24.658L65.565 22.307C66.9314 20.9081 67.5143 20.0986 67.5143 19.0105C67.5143 17.5275 66.1866 16.394 64.4057 16.394C62.547 16.394 61.1934 17.6246 61.1934 19.3085Z" fill="black"/>
<path d="M83.0912 32.0363H84.5095V22.6909H83.0782L80.6172 24.4396V25.8644L83.0588 24.1287H83.0912V32.0363Z" fill="black"/>
<path d="M93.9131 40.7342V40.7472H95.2861V40.7277C95.2861 39.7563 96.0567 39.018 97.08 39.018C98.0514 39.018 98.8026 39.6786 98.8026 40.5075C98.8026 41.2394 98.5048 41.7316 97.365 42.9168L93.9907 46.3557V47.3401H100.383V46.1161H95.9466V46.0837L98.2845 43.7328C99.6511 42.3339 100.234 41.5243 100.234 40.4363C100.234 38.9532 98.9063 37.8198 97.1253 37.8198C95.2666 37.8198 93.9131 39.0504 93.9131 40.7342Z" fill="black"/>
<path d="M101.126 62.4963H102.292C103.522 62.4963 104.287 63.1181 104.287 64.1284C104.287 65.0415 103.47 65.6892 102.33 65.6892C101.152 65.6892 100.413 65.0738 100.323 64.1802H98.9303C99.021 65.7927 100.316 66.9002 102.33 66.9002C104.279 66.9002 105.763 65.7798 105.763 64.1477C105.763 62.8395 104.856 61.9782 103.451 61.8811V61.8552C104.61 61.6479 105.374 60.8125 105.374 59.6467C105.374 58.2089 104.086 57.2051 102.318 57.2051C100.465 57.2051 99.2282 58.2608 99.1181 59.8993H100.485C100.569 58.9796 101.242 58.3968 102.253 58.3968C103.36 58.3968 103.956 58.9732 103.956 59.841C103.956 60.7218 103.263 61.3565 102.253 61.3565H101.126V62.4963Z" fill="black"/>
<path d="M98.4336 88.1511H99.8261V86.3053H101.108V85.0878H99.8261V78.8057H97.7277C95.6229 81.8495 94.5607 83.527 93.7577 85.036V86.3053H98.4336V88.1511ZM95.1113 85.0748C95.8561 83.7212 96.8016 82.2641 98.4206 79.9261H98.4466V85.1072H95.1113V85.0748Z" fill="black"/>
<path d="M82.035 102.609C84.0491 102.609 85.461 101.282 85.461 99.365C85.461 97.5516 84.1722 96.2369 82.3782 96.2369C81.4651 96.2369 80.7009 96.5931 80.2929 97.1825H80.2604L80.5195 94.3134H84.917V93.0894H79.3537L78.8615 98.3741H80.1892C80.5519 97.7588 81.2513 97.3897 82.0609 97.3897C83.2266 97.3897 84.0426 98.2316 84.0426 99.4038C84.0426 100.576 83.2266 101.399 82.048 101.399C81.0052 101.399 80.2086 100.764 80.1051 99.8377H78.7191C78.8033 101.47 80.1698 102.609 82.035 102.609Z" fill="black"/>
<path d="M61.7979 108.738C63.7797 108.738 65.2109 107.378 65.2109 105.506C65.2109 103.732 63.8898 102.417 62.1088 102.417C60.943 102.417 59.9521 103.026 59.5441 103.933H59.5182C59.5248 101.581 60.3796 100.247 61.8497 100.247C62.7046 100.247 63.404 100.746 63.6307 101.51H65.0815C64.7965 100.021 63.5141 99.0298 61.8627 99.0298C59.5247 99.0298 58.1259 100.882 58.1259 104.01C58.1259 105.105 58.3201 106.024 58.7022 106.769C59.311 108.032 60.4185 108.738 61.7979 108.738ZM61.785 107.514C60.671 107.514 59.8097 106.633 59.8097 105.525C59.8097 104.418 60.6581 103.602 61.7979 103.602C62.9442 103.602 63.7667 104.418 63.7667 105.552C63.7667 106.646 62.8859 107.514 61.785 107.514Z" fill="black"/>
<path d="M38.3939 102.435H39.9158L43.9765 94.3458V93.0894H37.6167V94.3134H42.5452V94.3458L38.3939 102.435Z" fill="black"/>
<path d="M24.9257 88.326C26.9981 88.326 28.4618 87.2121 28.4618 85.6253C28.4618 84.4402 27.6263 83.4817 26.3828 83.2226V83.1903C27.419 82.8923 28.0797 82.0893 28.0797 81.0984C28.0797 79.6672 26.7649 78.6309 24.9257 78.6309C23.0929 78.6309 21.7652 79.6736 21.7652 81.092C21.7652 82.0957 22.4322 82.9053 23.4684 83.1903V83.2226C22.2315 83.4817 21.3895 84.4337 21.3895 85.6253C21.3895 87.2055 22.8403 88.326 24.9257 88.326ZM24.9257 87.1602C23.734 87.1602 22.8857 86.4738 22.8857 85.5218C22.8857 84.5632 23.734 83.8703 24.9257 83.8703C26.1173 83.8703 26.9592 84.5568 26.9592 85.5218C26.9592 86.4738 26.1173 87.1602 24.9257 87.1602ZM24.9257 82.7045C23.9089 82.7045 23.203 82.0957 23.203 81.2473C23.203 80.3925 23.9089 79.7837 24.9257 79.7837C25.936 79.7837 26.6483 80.3925 26.6483 81.2473C26.6483 82.0957 25.9295 82.7045 24.9257 82.7045Z" fill="black"/>
<path d="M20.6048 66.9003C22.9493 66.9003 24.3353 65.0481 24.3353 61.9199C24.3353 60.8255 24.1409 59.9058 23.7588 59.161C23.1565 57.9047 22.0426 57.1987 20.6567 57.1987C18.6813 57.1987 17.2437 58.5588 17.2437 60.4304C17.2437 62.2049 18.5712 63.5196 20.3458 63.5196C21.5504 63.5196 22.5348 62.9108 22.9105 61.9913H22.9169H22.9234C22.9298 61.9913 22.9364 61.9913 22.9364 61.9913C22.9364 64.3486 22.0815 65.6957 20.6242 65.6957C19.7629 65.6957 19.0506 65.1841 18.8303 64.4198H17.3731C17.6517 65.9029 18.9405 66.9003 20.6048 66.9003ZM20.6567 62.3345C19.5232 62.3345 18.6879 61.5055 18.6879 60.385C18.6879 59.297 19.5621 58.4357 20.6761 58.4357C21.79 58.4357 22.6578 59.3036 22.6578 60.411C22.6578 61.5119 21.8029 62.3345 20.6567 62.3345Z" fill="black"/>
<path d="M22.895 47.3401H24.3134V37.9947H22.882L20.421 39.7433V41.1682L22.8626 39.4325H22.895V47.3401ZM29.9883 47.515C32.2292 47.515 33.5439 45.6303 33.5439 42.6512C33.5439 39.6915 32.2227 37.8198 29.9883 37.8198C27.7605 37.8198 26.4199 39.698 26.4199 42.6577C26.4199 45.6369 27.7476 47.515 29.9883 47.515ZM29.9883 46.2974C28.6542 46.2974 27.89 44.9114 27.89 42.6577C27.89 40.4363 28.6672 39.0374 29.9883 39.0374C31.3096 39.0374 32.0802 40.4299 32.0802 42.6577C32.0802 44.918 31.3225 46.2974 29.9883 46.2974Z" fill="black"/>
<path d="M38.1992 32.0363H39.6176V22.6909H38.1862L35.7252 24.4396V25.8644L38.1668 24.1287H38.1992V32.0363ZM44.2499 32.0363H45.6682V22.6909H44.237L41.776 24.4396V25.8644L44.2175 24.1287H44.2499V32.0363Z" fill="black"/>
<path d="M30.0085 96.2928L61.4702 61.624L91.5501 71.9192" stroke="black" stroke-width="1.53041" stroke-linecap="round" stroke-linejoin="round"/>
<path d="M61.8921 63.9195C63.0191 63.9195 63.9327 63.0059 63.9327 61.8789C63.9327 60.7519 63.0191 59.8384 61.8921 59.8384C60.7651 59.8384 59.8516 60.7519 59.8516 61.8789C59.8516 63.0059 60.7651 63.9195 61.8921 63.9195Z" fill="#DE4C2D" stroke="black" stroke-width="1.53041"/>
<path d="M60.2911 70.0716L70.8279 14.6914" stroke="#DE4C2D" stroke-width="1.02027" stroke-linecap="round"/>
</svg>
