<svg width="402" height="402" viewBox="0 0 402 402" fill="none" xmlns="http://www.w3.org/2000/svg">
<path fill-rule="evenodd" clip-rule="evenodd" d="M75.942 100.23L100.934 100.197L100.934 100.197L100.901 75.2298L100.803 0.328127L75.8108 0.360903L75.9092 75.2626L0.933758 75.3609L0.966572 100.328L75.942 100.23Z" fill="#F5F5F5"/>
<path fill-rule="evenodd" clip-rule="evenodd" d="M301.098 75.5333L301.131 100.525L301.131 100.525L326.098 100.492L400.999 100.394L400.967 75.4021L326.065 75.5005L325.967 0.5251L300.999 0.557914L301.098 75.5333Z" fill="#F5F5F5"/>
<path fill-rule="evenodd" clip-rule="evenodd" d="M100.901 325.517L100.868 300.525L100.868 300.525L75.901 300.558L0.999285 300.656L1.03206 325.648L75.9337 325.55L76.0321 400.525L100.999 400.492L100.901 325.517Z" fill="#F5F5F5"/>
<path fill-rule="evenodd" clip-rule="evenodd" d="M325.991 300.82L300.999 300.853L300.999 300.853L301.032 325.82L301.131 400.722L326.122 400.689L326.024 325.788L400.999 325.689L400.966 300.722L325.991 300.82Z" fill="#F5F5F5"/>
</svg>
