<svg width="200" height="200" viewBox="0 0 200 200" fill="none" xmlns="http://www.w3.org/2000/svg">
<g clip-path="url(#clip0_4108_7)">
<rect width="200" height="200" rx="40" fill="url(#paint0_linear_4108_7)"/>
<path fill-rule="evenodd" clip-rule="evenodd" d="M53.4657 93.7444C82.6177 81.0433 102.057 72.67 111.783 68.6244C139.555 57.0735 145.325 55.067 149.086 55.0007C149.914 54.9861 151.763 55.1911 152.961 56.1633C153.973 56.9842 154.251 58.0932 154.385 58.8715C154.518 59.6498 154.684 61.4228 154.552 62.8081C153.047 78.6205 146.535 116.993 143.222 134.703C141.82 142.197 139.06 144.709 136.388 144.955C130.581 145.49 126.171 141.118 120.547 137.431C111.745 131.661 106.773 128.07 98.23 122.44C88.3569 115.934 94.7572 112.358 100.384 106.514C101.856 104.984 127.443 81.7113 127.938 79.6001C128 79.336 128.058 78.3518 127.473 77.8321C126.888 77.3124 126.025 77.4901 125.402 77.6314C124.52 77.8318 110.46 87.125 83.2219 105.511C79.231 108.252 75.6161 109.587 72.3773 109.517C68.8068 109.44 61.9386 107.498 56.8327 105.838C50.5702 103.803 45.5929 102.726 46.0263 99.2693C46.2521 97.4685 48.7318 95.6269 53.4657 93.7444Z" fill="white"/>
<path d="M-16.0159 229C-16.0159 229 -47.7638 146.038 24.1181 151.759C96 157.481 96 116 96 116" stroke="white" stroke-width="5" stroke-dasharray="8 8"/>
</g>
<defs>
<linearGradient id="paint0_linear_4108_7" x1="100" y1="0" x2="100" y2="200" gradientUnits="userSpaceOnUse">
<stop stop-color="#475361"/>
<stop offset="1" stop-color="#1D1D1D"/>
</linearGradient>
<clipPath id="clip0_4108_7">
<rect width="200" height="200" rx="40" fill="white"/>
</clipPath>
</defs>
</svg>
