<svg width="402" height="402" viewBox="0 0 402 402" fill="none" xmlns="http://www.w3.org/2000/svg">
<path fill-rule="evenodd" clip-rule="evenodd" d="M25.9913 0.393682L0.99949 0.393632L0.999462 0.393649L0.999522 25.3609L0.999591 100.263L25.9914 100.263L25.9913 25.3609L100.967 25.361L100.967 0.393761L25.9913 0.393682Z" fill="#F5F5F5"/>
<path fill-rule="evenodd" clip-rule="evenodd" d="M400.901 25.5169L400.868 0.525109L400.868 0.525101L375.901 0.557917L301 0.656335L301.032 25.6481L375.934 25.5497L376.032 100.525L401 100.492L400.901 25.5169Z" fill="#F5F5F5"/>
<path fill-rule="evenodd" clip-rule="evenodd" d="M1.09769 375.533L1.13046 400.525L1.13047 400.525L26.0977 400.492L100.999 400.394L100.967 375.402L26.0649 375.501L25.9666 300.525L0.999359 300.558L1.09769 375.533Z" fill="#F5F5F5"/>
<path fill-rule="evenodd" clip-rule="evenodd" d="M376.008 400.624L400.999 400.591L400.999 400.591L400.967 375.624L400.868 300.722L375.876 300.755L375.975 375.657L300.999 375.755L301.032 400.722L376.008 400.624Z" fill="#F5F5F5"/>
</svg>
