<svg width="200" height="200" viewBox="0 0 200 200" fill="none" xmlns="http://www.w3.org/2000/svg">
<g clip-path="url(#clip0_4114_33)">
<rect width="200" height="200" rx="40" fill="url(#paint0_linear_4114_33)"/>
<path d="M208.847 -43.6496L216.321 -49.9207L222.592 -42.4471L215.118 -36.176L208.847 -43.6496ZM201.373 -37.3785L208.847 -43.6496L215.118 -36.176L207.644 -29.9049L201.373 -37.3785ZM193.9 -31.1074L201.373 -37.3785L207.644 -29.9049L200.171 -23.6338L193.9 -31.1074ZM186.426 -24.8363L193.9 -31.1074L200.171 -23.6338L192.697 -17.3627L186.426 -24.8363ZM178.953 -18.5652L186.426 -24.8363L192.697 -17.3627L185.224 -11.0916L178.953 -18.5652ZM171.479 -12.2941L178.953 -18.5652L185.224 -11.0916L177.75 -4.8205L171.479 -12.2941ZM164.005 -6.02301L171.479 -12.2941L177.75 -4.8205L170.276 1.4506L164.005 -6.02301ZM156.532 0.248089L164.005 -6.02301L170.276 1.4506L162.803 7.7217L156.532 0.248089ZM149.058 6.51919L156.532 0.248089L162.803 7.7217L155.329 13.9928L149.058 6.51919ZM141.585 12.7903L149.058 6.51919L155.329 13.9928L147.856 20.2639L141.585 12.7903ZM134.111 19.0614L141.585 12.7903L147.856 20.2639L140.382 26.535L134.111 19.0614ZM126.637 25.3325L134.111 19.0614L140.382 26.535L132.908 32.8061L126.637 25.3325ZM119.164 31.6036L126.637 25.3325L132.908 32.8061L125.435 39.0772L119.164 31.6036ZM111.69 37.8747L119.164 31.6036L125.435 39.0772L117.961 45.3483L111.69 37.8747ZM104.217 44.1458L111.69 37.8747L117.961 45.3483L110.488 51.6194L104.217 44.1458ZM97.9454 36.6722L105.419 30.4011L111.69 37.8747L104.217 44.1458L97.9454 36.6722ZM105.419 30.4011L112.893 24.13L119.164 31.6036L111.69 37.8747L105.419 30.4011ZM112.893 24.13L120.366 17.8589L126.637 25.3325L119.164 31.6036L112.893 24.13ZM120.366 17.8589L127.84 11.5878L134.111 19.0614L126.637 25.3325L120.366 17.8589ZM127.84 11.5878L135.313 5.31669L141.585 12.7903L134.111 19.0614L127.84 11.5878ZM135.313 5.31669L142.787 -0.954411L149.058 6.51919L141.585 12.7903L135.313 5.31669ZM142.787 -0.954411L150.261 -7.22551L156.532 0.248089L149.058 6.51919L142.787 -0.954411ZM143.99 -14.6991L151.463 -20.9702L157.734 -13.4966L150.261 -7.22551L143.99 -14.6991ZM151.463 -20.9702L158.937 -27.2413L165.208 -19.7677L157.734 -13.4966L151.463 -20.9702ZM158.937 -27.2413L166.41 -33.5124L172.681 -26.0388L165.208 -19.7677L158.937 -27.2413ZM166.41 -33.5124L173.884 -39.7835L180.155 -32.3099L172.681 -26.0388L166.41 -33.5124ZM173.884 -39.7835L181.358 -46.0546L187.629 -38.581L180.155 -32.3099L173.884 -39.7835ZM181.358 -46.0546L188.831 -52.3257L195.102 -44.8521L187.629 -38.581L181.358 -46.0546ZM188.831 -52.3257L196.305 -58.5968L202.576 -51.1232L195.102 -44.8521L188.831 -52.3257ZM196.305 -58.5968L203.778 -64.8679L210.049 -57.3943L202.576 -51.1232L196.305 -58.5968ZM190.034 -66.0704L197.507 -72.3415L203.778 -64.8679L196.305 -58.5968L190.034 -66.0704ZM183.763 -73.544L191.236 -79.8151L197.507 -72.3415L190.034 -66.0704L183.763 -73.544ZM176.289 -67.2729L183.763 -73.544L190.034 -66.0704L182.56 -59.7993L176.289 -67.2729ZM168.815 -61.0018L176.289 -67.2729L182.56 -59.7993L175.086 -53.5282L168.815 -61.0018ZM161.342 -54.7307L168.815 -61.0018L175.086 -53.5282L167.613 -47.2571L161.342 -54.7307ZM153.868 -48.4596L161.342 -54.7307L167.613 -47.2571L160.139 -40.986L153.868 -48.4596ZM146.395 -42.1885L153.868 -48.4596L160.139 -40.986L152.666 -34.7149L146.395 -42.1885ZM138.921 -35.9174L146.395 -42.1885L152.666 -34.7149L145.192 -28.4438L138.921 -35.9174ZM131.447 -29.6463L138.921 -35.9174L145.192 -28.4438L137.718 -22.1727L131.447 -29.6463ZM137.718 -22.1727L145.192 -28.4438L151.463 -20.9702L143.99 -14.6991L137.718 -22.1727ZM130.245 -15.9016L137.718 -22.1727L143.99 -14.6991L136.516 -8.42802L130.245 -15.9016ZM145.192 -28.4438L152.666 -34.7149L158.937 -27.2413L151.463 -20.9702L145.192 -28.4438ZM152.666 -34.7149L160.139 -40.986L166.41 -33.5124L158.937 -27.2413L152.666 -34.7149ZM160.139 -40.986L167.613 -47.2571L173.884 -39.7835L166.41 -33.5124L160.139 -40.986ZM167.613 -47.2571L175.086 -53.5282L181.358 -46.0546L173.884 -39.7835L167.613 -47.2571ZM175.086 -53.5282L182.56 -59.7993L188.831 -52.3257L181.358 -46.0546L175.086 -53.5282ZM182.56 -59.7993L190.034 -66.0704L196.305 -58.5968L188.831 -52.3257L182.56 -59.7993ZM202.576 -51.1232L210.049 -57.3943L216.321 -49.9207L208.847 -43.6496L202.576 -51.1232ZM195.102 -44.8521L202.576 -51.1232L208.847 -43.6496L201.373 -37.3785L195.102 -44.8521ZM187.629 -38.581L195.102 -44.8521L201.373 -37.3785L193.9 -31.1074L187.629 -38.581ZM180.155 -32.3099L187.629 -38.581L193.9 -31.1074L186.426 -24.8363L180.155 -32.3099ZM172.681 -26.0388L180.155 -32.3099L186.426 -24.8363L178.953 -18.5652L172.681 -26.0388ZM165.208 -19.7677L172.681 -26.0388L178.953 -18.5652L171.479 -12.2941L165.208 -19.7677ZM157.734 -13.4966L165.208 -19.7677L171.479 -12.2941L164.005 -6.02301L157.734 -13.4966ZM150.261 -7.22551L157.734 -13.4966L164.005 -6.02301L156.532 0.248089L150.261 -7.22551ZM29.4805 106.857L36.9541 100.586L43.2252 108.059L35.7516 114.33L29.4805 106.857ZM36.9541 100.586L44.4277 94.3146L50.6988 101.788L43.2252 108.059L36.9541 100.586ZM44.4277 94.3146L51.9013 88.0435L58.1724 95.5171L50.6988 101.788L44.4277 94.3146ZM51.9013 88.0435L59.3749 81.7724L65.646 89.246L58.1724 95.5171L51.9013 88.0435ZM59.3749 81.7724L66.8485 75.5013L73.1196 82.9749L65.646 89.246L59.3749 81.7724ZM66.8485 75.5013L74.3221 69.2302L80.5932 76.7038L73.1196 82.9749L66.8485 75.5013ZM74.3221 69.2302L81.7957 62.9591L88.0668 70.4327L80.5932 76.7038L74.3221 69.2302ZM81.7957 62.9591L89.2693 56.688L95.5404 64.1616L88.0668 70.4327L81.7957 62.9591ZM89.2693 56.688L96.7429 50.4169L103.014 57.8905L95.5404 64.1616L89.2693 56.688ZM96.7429 50.4169L104.217 44.1458L110.488 51.6194L103.014 57.8905L96.7429 50.4169ZM10.6672 84.436L18.1408 78.1649L24.4119 85.6385L16.9383 91.9096L10.6672 84.436ZM18.1408 78.1649L25.6144 71.8938L31.8855 79.3674L24.4119 85.6385L18.1408 78.1649ZM25.6144 71.8938L33.088 65.6227L39.3591 73.0963L31.8855 79.3674L25.6144 71.8938ZM33.088 65.6227L40.5616 59.3516L46.8327 66.8252L39.3591 73.0963L33.088 65.6227ZM40.5616 59.3516L48.0352 53.0805L54.3063 60.5541L46.8327 66.8252L40.5616 59.3516ZM48.0352 53.0805L55.5088 46.8094L61.7799 54.283L54.3063 60.5541L48.0352 53.0805ZM62.9824 40.5383L70.456 34.2672L76.7271 41.7408L69.2535 48.0119L62.9824 40.5383ZM70.456 34.2672L77.9296 27.9961L84.2007 35.4697L76.7271 41.7408L70.456 34.2672ZM77.9296 27.9961L85.4032 21.725L91.6743 29.1986L84.2007 35.4697L77.9296 27.9961ZM85.4032 21.725L92.8768 15.4539L99.1479 22.9275L91.6743 29.1986L85.4032 21.725ZM92.8768 15.4539L100.35 9.18278L106.622 16.6564L99.1479 22.9275L92.8768 15.4539ZM100.35 9.18278L107.824 2.91168L114.095 10.3853L106.622 16.6564L100.35 9.18278ZM107.824 2.91168L115.298 -3.35942L121.569 4.11418L114.095 10.3853L107.824 2.91168ZM109.027 -10.833L116.5 -17.1041L122.771 -9.63052L115.298 -3.35942L109.027 -10.833ZM116.5 -17.1041L123.974 -23.3752L130.245 -15.9016L122.771 -9.63052L116.5 -17.1041ZM123.974 -23.3752L131.447 -29.6463L137.718 -22.1727L130.245 -15.9016L123.974 -23.3752ZM101.553 -4.56193L109.027 -10.833L115.298 -3.35942L107.824 2.91168L101.553 -4.56193ZM94.0793 1.70918L101.553 -4.56193L107.824 2.91168L100.35 9.18278L94.0793 1.70918ZM86.6057 7.98028L94.0793 1.70918L100.35 9.18278L92.8768 15.4539L86.6057 7.98028ZM79.1321 14.2514L86.6057 7.98028L92.8768 15.4539L85.4032 21.725L79.1321 14.2514ZM71.6585 20.5225L79.1321 14.2514L85.4032 21.725L77.9296 27.9961L71.6585 20.5225ZM64.1849 26.7936L71.6585 20.5225L77.9296 27.9961L70.456 34.2672L64.1849 26.7936ZM56.7113 33.0647L64.1849 26.7936L70.456 34.2672L62.9824 40.5383L56.7113 33.0647ZM49.2377 39.3358L56.7113 33.0647L62.9824 40.5383L55.5088 46.8094L49.2377 39.3358ZM41.7641 45.6069L49.2377 39.3358L55.5088 46.8094L48.0352 53.0805L41.7641 45.6069ZM34.2905 51.878L41.7641 45.6069L48.0352 53.0805L40.5616 59.3516L34.2905 51.878ZM55.5088 46.8094L62.9824 40.5383L69.2535 48.0119L61.7799 54.283L55.5088 46.8094ZM26.8169 58.1491L34.2905 51.878L40.5616 59.3516L33.088 65.6227L26.8169 58.1491ZM19.3433 64.4202L26.8169 58.1491L33.088 65.6227L25.6144 71.8938L19.3433 64.4202ZM11.8697 70.6913L19.3433 64.4202L25.6144 71.8938L18.1408 78.1649L11.8697 70.6913ZM4.39606 76.9624L11.8697 70.6913L18.1408 78.1649L10.6672 84.436L4.39606 76.9624ZM16.9383 91.9096L24.4119 85.6385L30.683 93.1121L23.2094 99.3832L16.9383 91.9096ZM23.2094 99.3832L30.683 93.1121L36.9541 100.586L29.4805 106.857L23.2094 99.3832ZM30.683 93.1121L38.1566 86.841L44.4277 94.3146L36.9541 100.586L30.683 93.1121ZM24.4119 85.6385L31.8855 79.3674L38.1566 86.841L30.683 93.1121L24.4119 85.6385ZM31.8855 79.3674L39.3591 73.0963L45.6302 80.5699L38.1566 86.841L31.8855 79.3674ZM39.3591 73.0963L46.8327 66.8252L53.1038 74.2988L45.6302 80.5699L39.3591 73.0963ZM46.8327 66.8252L54.3063 60.5541L60.5774 68.0277L53.1038 74.2988L46.8327 66.8252ZM54.3063 60.5541L61.7799 54.283L68.051 61.7566L60.5774 68.0277L54.3063 60.5541ZM61.7799 54.283L69.2535 48.0119L75.5246 55.4855L68.051 61.7566L61.7799 54.283ZM69.2535 48.0119L76.7271 41.7408L82.9982 49.2144L75.5246 55.4855L69.2535 48.0119ZM82.9982 49.2144L90.4718 42.9433L96.7429 50.4169L89.2693 56.688L82.9982 49.2144ZM90.4718 42.9433L97.9454 36.6722L104.217 44.1458L96.7429 50.4169L90.4718 42.9433ZM75.5246 55.4855L82.9982 49.2144L89.2693 56.688L81.7957 62.9591L75.5246 55.4855ZM68.051 61.7566L75.5246 55.4855L81.7957 62.9591L74.3221 69.2302L68.051 61.7566ZM60.5774 68.0277L68.051 61.7566L74.3221 69.2302L66.8485 75.5013L60.5774 68.0277ZM53.1038 74.2988L60.5774 68.0277L66.8485 75.5013L59.3749 81.7724L53.1038 74.2988ZM45.6302 80.5699L53.1038 74.2988L59.3749 81.7724L51.9013 88.0435L45.6302 80.5699ZM38.1566 86.841L45.6302 80.5699L51.9013 88.0435L44.4277 94.3146L38.1566 86.841ZM76.7271 41.7408L84.2007 35.4697L90.4718 42.9433L82.9982 49.2144L76.7271 41.7408ZM84.2007 35.4697L91.6743 29.1986L97.9454 36.6722L90.4718 42.9433L84.2007 35.4697ZM91.6743 29.1986L99.1479 22.9275L105.419 30.4011L97.9454 36.6722L91.6743 29.1986ZM99.1479 22.9275L106.622 16.6564L112.893 24.13L105.419 30.4011L99.1479 22.9275ZM106.622 16.6564L114.095 10.3853L120.366 17.8589L112.893 24.13L106.622 16.6564ZM114.095 10.3853L121.569 4.11418L127.84 11.5878L120.366 17.8589L114.095 10.3853ZM121.569 4.11418L129.042 -2.15692L135.313 5.31669L127.84 11.5878L121.569 4.11418ZM129.042 -2.15692L136.516 -8.42802L142.787 -0.954411L135.313 5.31669L129.042 -2.15692ZM136.516 -8.42802L143.99 -14.6991L150.261 -7.22551L142.787 -0.954411L136.516 -8.42802ZM122.771 -9.63052L130.245 -15.9016L136.516 -8.42802L129.042 -2.15692L122.771 -9.63052ZM115.298 -3.35942L122.771 -9.63052L129.042 -2.15692L121.569 4.11418L115.298 -3.35942ZM35.7516 114.33L43.2252 108.059L49.4963 115.533L42.0226 121.804L35.7516 114.33ZM42.0226 121.804L49.4963 115.533L55.7674 123.006L48.2937 129.278L42.0226 121.804ZM48.2937 129.278L55.7674 123.006L62.0385 130.48L54.5648 136.751L48.2937 129.278ZM54.5648 136.751L62.0385 130.48L68.3096 137.954L60.8359 144.225L54.5648 136.751ZM62.0385 130.48L69.5121 124.209L75.7832 131.683L68.3096 137.954L62.0385 130.48ZM69.5121 124.209L76.9857 117.938L83.2568 125.411L75.7832 131.683L69.5121 124.209ZM76.9857 117.938L84.4593 111.667L90.7304 119.14L83.2568 125.411L76.9857 117.938ZM84.4593 111.667L91.9329 105.396L98.204 112.869L90.7304 119.14L84.4593 111.667ZM78.1882 104.193L85.6618 97.9221L91.9329 105.396L84.4593 111.667L78.1882 104.193ZM71.9171 96.7196L79.3907 90.4485L85.6618 97.9221L78.1882 104.193L71.9171 96.7196ZM65.646 89.246L73.1196 82.9749L79.3907 90.4485L71.9171 96.7196L65.646 89.246ZM58.1724 95.5171L65.646 89.246L71.9171 96.7196L64.4435 102.991L58.1724 95.5171ZM50.6988 101.788L58.1724 95.5171L64.4435 102.991L56.9699 109.262L50.6988 101.788ZM43.2252 108.059L50.6988 101.788L56.9699 109.262L49.4963 115.533L43.2252 108.059ZM49.4963 115.533L56.9699 109.262L63.241 116.735L55.7674 123.006L49.4963 115.533ZM55.7674 123.006L63.241 116.735L69.5121 124.209L62.0385 130.48L55.7674 123.006ZM63.241 116.735L70.7146 110.464L76.9857 117.938L69.5121 124.209L63.241 116.735ZM70.7146 110.464L78.1882 104.193L84.4593 111.667L76.9857 117.938L70.7146 110.464ZM64.4435 102.991L71.9171 96.7196L78.1882 104.193L70.7146 110.464L64.4435 102.991ZM56.9699 109.262L64.4435 102.991L70.7146 110.464L63.241 116.735L56.9699 109.262Z" fill="white"/>
<path d="M-7.84702 244.598L-15.3206 250.869L-21.5917 243.395L-14.1181 237.124L-7.84702 244.598ZM-0.373415 238.327L-7.84702 244.598L-14.1181 237.124L-6.64451 230.853L-0.373415 238.327ZM7.10019 232.056L-0.373415 238.327L-6.64451 230.853L0.829089 224.582L7.10019 232.056ZM14.5738 225.785L7.10019 232.056L0.829089 224.582L8.30269 218.311L14.5738 225.785ZM22.0474 219.513L14.5738 225.785L8.30269 218.311L15.7763 212.04L22.0474 219.513ZM29.521 213.242L22.0474 219.513L15.7763 212.04L23.2499 205.769L29.521 213.242ZM36.9946 206.971L29.521 213.242L23.2499 205.769L30.7235 199.498L36.9946 206.971ZM44.4682 200.7L36.9946 206.971L30.7235 199.498L38.1971 193.227L44.4682 200.7ZM51.9418 194.429L44.4682 200.7L38.1971 193.227L45.6707 186.955L51.9418 194.429ZM59.4154 188.158L51.9418 194.429L45.6707 186.955L53.1443 180.684L59.4154 188.158ZM66.889 181.887L59.4154 188.158L53.1443 180.684L60.6179 174.413L66.889 181.887ZM74.3626 175.616L66.889 181.887L60.6179 174.413L68.0915 168.142L74.3626 175.616ZM81.8362 169.345L74.3626 175.616L68.0915 168.142L75.5651 161.871L81.8362 169.345ZM89.3098 163.074L81.8362 169.345L75.5651 161.871L83.0387 155.6L89.3098 163.074ZM96.7834 156.802L89.3098 163.074L83.0387 155.6L90.5123 149.329L96.7834 156.802ZM103.055 164.276L95.5809 170.547L89.3098 163.074L96.7834 156.802L103.055 164.276ZM95.5809 170.547L88.1073 176.818L81.8362 169.345L89.3098 163.074L95.5809 170.547ZM88.1073 176.818L80.6337 183.089L74.3626 175.616L81.8362 169.345L88.1073 176.818ZM80.6337 183.089L73.1601 189.36L66.889 181.887L74.3626 175.616L80.6337 183.089ZM73.1601 189.36L65.6865 195.632L59.4154 188.158L66.889 181.887L73.1601 189.36ZM65.6865 195.632L58.2129 201.903L51.9418 194.429L59.4154 188.158L65.6865 195.632ZM58.2129 201.903L50.7393 208.174L44.4682 200.7L51.9418 194.429L58.2129 201.903ZM57.0104 215.647L49.5368 221.918L43.2657 214.445L50.7393 208.174L57.0104 215.647ZM49.5368 221.918L42.0632 228.19L35.7921 220.716L43.2657 214.445L49.5368 221.918ZM42.0632 228.19L34.5896 234.461L28.3185 226.987L35.7921 220.716L42.0632 228.19ZM34.5896 234.461L27.116 240.732L20.8449 233.258L28.3185 226.987L34.5896 234.461ZM27.116 240.732L19.6424 247.003L13.3713 239.529L20.8449 233.258L27.116 240.732ZM19.6424 247.003L12.1688 253.274L5.89768 245.8L13.3713 239.529L19.6424 247.003ZM12.1688 253.274L4.69518 259.545L-1.57592 252.071L5.89768 245.8L12.1688 253.274ZM4.69518 259.545L-2.77843 265.816L-9.04953 258.343L-1.57592 252.071L4.69518 259.545ZM10.9663 267.019L3.49267 273.29L-2.77843 265.816L4.69518 259.545L10.9663 267.019ZM17.2374 274.492L9.76377 280.763L3.49267 273.29L10.9663 267.019L17.2374 274.492ZM24.711 268.221L17.2374 274.492L10.9663 267.019L18.4399 260.748L24.711 268.221ZM32.1846 261.95L24.711 268.221L18.4399 260.748L25.9135 254.476L32.1846 261.95ZM39.6582 255.679L32.1846 261.95L25.9135 254.476L33.3871 248.205L39.6582 255.679ZM47.1318 249.408L39.6582 255.679L33.3871 248.205L40.8607 241.934L47.1318 249.408ZM54.6054 243.137L47.1318 249.408L40.8607 241.934L48.3343 235.663L54.6054 243.137ZM62.079 236.866L54.6054 243.137L48.3343 235.663L55.8079 229.392L62.079 236.866ZM69.5526 230.595L62.079 236.866L55.8079 229.392L63.2815 223.121L69.5526 230.595ZM63.2815 223.121L55.8079 229.392L49.5368 221.918L57.0104 215.647L63.2815 223.121ZM70.7551 216.85L63.2815 223.121L57.0104 215.647L64.484 209.376L70.7551 216.85ZM55.8079 229.392L48.3343 235.663L42.0632 228.19L49.5368 221.918L55.8079 229.392ZM48.3343 235.663L40.8607 241.934L34.5896 234.461L42.0632 228.19L48.3343 235.663ZM40.8607 241.934L33.3871 248.205L27.116 240.732L34.5896 234.461L40.8607 241.934ZM33.3871 248.205L25.9135 254.476L19.6424 247.003L27.116 240.732L33.3871 248.205ZM25.9135 254.476L18.4399 260.748L12.1688 253.274L19.6424 247.003L25.9135 254.476ZM18.4399 260.748L10.9663 267.019L4.69518 259.545L12.1688 253.274L18.4399 260.748ZM-1.57592 252.071L-9.04953 258.343L-15.3206 250.869L-7.84702 244.598L-1.57592 252.071ZM5.89768 245.8L-1.57592 252.071L-7.84702 244.598L-0.373415 238.327L5.89768 245.8ZM13.3713 239.529L5.89768 245.8L-0.373415 238.327L7.10019 232.056L13.3713 239.529ZM20.8449 233.258L13.3713 239.529L7.10019 232.056L14.5738 225.785L20.8449 233.258ZM28.3185 226.987L20.8449 233.258L14.5738 225.785L22.0474 219.513L28.3185 226.987ZM35.7921 220.716L28.3185 226.987L22.0474 219.513L29.521 213.242L35.7921 220.716ZM43.2657 214.445L35.7921 220.716L29.521 213.242L36.9946 206.971L43.2657 214.445ZM50.7393 208.174L43.2657 214.445L36.9946 206.971L44.4682 200.7L50.7393 208.174ZM171.519 94.0915L164.046 100.363L157.775 92.889L165.248 86.6178L171.519 94.0915ZM164.046 100.363L156.572 106.634L150.301 99.1601L157.775 92.889L164.046 100.363ZM156.572 106.634L149.099 112.905L142.828 105.431L150.301 99.1601L156.572 106.634ZM149.099 112.905L141.625 119.176L135.354 111.702L142.828 105.431L149.099 112.905ZM141.625 119.176L134.151 125.447L127.88 117.973L135.354 111.702L141.625 119.176ZM134.151 125.447L126.678 131.718L120.407 124.244L127.88 117.973L134.151 125.447ZM126.678 131.718L119.204 137.989L112.933 130.516L120.407 124.244L126.678 131.718ZM119.204 137.989L111.731 144.26L105.46 136.787L112.933 130.516L119.204 137.989ZM111.731 144.26L104.257 150.531L97.9859 143.058L105.46 136.787L111.731 144.26ZM104.257 150.531L96.7834 156.802L90.5123 149.329L97.9859 143.058L104.257 150.531ZM190.333 116.512L182.859 122.783L176.588 115.31L184.062 109.039L190.333 116.512ZM182.859 122.783L175.386 129.054L169.114 121.581L176.588 115.31L182.859 122.783ZM175.386 129.054L167.912 135.326L161.641 127.852L169.114 121.581L175.386 129.054ZM167.912 135.326L160.438 141.597L154.167 134.123L161.641 127.852L167.912 135.326ZM160.438 141.597L152.965 147.868L146.694 140.394L154.167 134.123L160.438 141.597ZM152.965 147.868L145.491 154.139L139.22 146.665L146.694 140.394L152.965 147.868ZM138.018 160.41L130.544 166.681L124.273 159.207L131.746 152.936L138.018 160.41ZM130.544 166.681L123.07 172.952L116.799 165.479L124.273 159.207L130.544 166.681ZM123.07 172.952L115.597 179.223L109.326 171.75L116.799 165.479L123.07 172.952ZM115.597 179.223L108.123 185.494L101.852 178.021L109.326 171.75L115.597 179.223ZM108.123 185.494L100.65 191.765L94.3784 184.292L101.852 178.021L108.123 185.494ZM100.65 191.765L93.1759 198.037L86.9048 190.563L94.3784 184.292L100.65 191.765ZM93.1759 198.037L85.7023 204.308L79.4312 196.834L86.9048 190.563L93.1759 198.037ZM91.9734 211.781L84.4998 218.052L78.2287 210.579L85.7023 204.308L91.9734 211.781ZM84.4998 218.052L77.0262 224.323L70.7551 216.85L78.2287 210.579L84.4998 218.052ZM77.0262 224.323L69.5526 230.595L63.2815 223.121L70.7551 216.85L77.0262 224.323ZM99.447 205.51L91.9734 211.781L85.7023 204.308L93.1759 198.037L99.447 205.51ZM106.921 199.239L99.447 205.51L93.1759 198.037L100.65 191.765L106.921 199.239ZM114.394 192.968L106.921 199.239L100.65 191.765L108.123 185.494L114.394 192.968ZM121.868 186.697L114.394 192.968L108.123 185.494L115.597 179.223L121.868 186.697ZM129.341 180.426L121.868 186.697L115.597 179.223L123.07 172.952L129.341 180.426ZM136.815 174.155L129.341 180.426L123.07 172.952L130.544 166.681L136.815 174.155ZM144.289 167.884L136.815 174.155L130.544 166.681L138.018 160.41L144.289 167.884ZM151.762 161.612L144.289 167.884L138.018 160.41L145.491 154.139L151.762 161.612ZM159.236 155.341L151.762 161.612L145.491 154.139L152.965 147.868L159.236 155.341ZM166.709 149.07L159.236 155.341L152.965 147.868L160.438 141.597L166.709 149.07ZM145.491 154.139L138.018 160.41L131.746 152.936L139.22 146.665L145.491 154.139ZM174.183 142.799L166.709 149.07L160.438 141.597L167.912 135.326L174.183 142.799ZM181.657 136.528L174.183 142.799L167.912 135.326L175.386 129.054L181.657 136.528ZM189.13 130.257L181.657 136.528L175.386 129.054L182.859 122.783L189.13 130.257ZM196.604 123.986L189.13 130.257L182.859 122.783L190.333 116.512L196.604 123.986ZM184.062 109.039L176.588 115.31L170.317 107.836L177.791 101.565L184.062 109.039ZM177.791 101.565L170.317 107.836L164.046 100.363L171.519 94.0915L177.791 101.565ZM170.317 107.836L162.843 114.107L156.572 106.634L164.046 100.363L170.317 107.836ZM176.588 115.31L169.114 121.581L162.843 114.107L170.317 107.836L176.588 115.31ZM169.114 121.581L161.641 127.852L155.37 120.378L162.843 114.107L169.114 121.581ZM161.641 127.852L154.167 134.123L147.896 126.649L155.37 120.378L161.641 127.852ZM154.167 134.123L146.694 140.394L140.423 132.921L147.896 126.649L154.167 134.123ZM146.694 140.394L139.22 146.665L132.949 139.192L140.423 132.921L146.694 140.394ZM139.22 146.665L131.746 152.936L125.475 145.463L132.949 139.192L139.22 146.665ZM131.746 152.936L124.273 159.207L118.002 151.734L125.475 145.463L131.746 152.936ZM118.002 151.734L110.528 158.005L104.257 150.531L111.731 144.26L118.002 151.734ZM110.528 158.005L103.055 164.276L96.7834 156.802L104.257 150.531L110.528 158.005ZM125.475 145.463L118.002 151.734L111.731 144.26L119.204 137.989L125.475 145.463ZM132.949 139.192L125.475 145.463L119.204 137.989L126.678 131.718L132.949 139.192ZM140.423 132.921L132.949 139.192L126.678 131.718L134.151 125.447L140.423 132.921ZM147.896 126.649L140.423 132.921L134.151 125.447L141.625 119.176L147.896 126.649ZM155.37 120.378L147.896 126.649L141.625 119.176L149.099 112.905L155.37 120.378ZM162.843 114.107L155.37 120.378L149.099 112.905L156.572 106.634L162.843 114.107ZM124.273 159.207L116.799 165.479L110.528 158.005L118.002 151.734L124.273 159.207ZM116.799 165.479L109.326 171.75L103.055 164.276L110.528 158.005L116.799 165.479ZM109.326 171.75L101.852 178.021L95.5809 170.547L103.055 164.276L109.326 171.75ZM101.852 178.021L94.3784 184.292L88.1073 176.818L95.5809 170.547L101.852 178.021ZM94.3784 184.292L86.9048 190.563L80.6337 183.089L88.1073 176.818L94.3784 184.292ZM86.9048 190.563L79.4312 196.834L73.1601 189.36L80.6337 183.089L86.9048 190.563ZM79.4312 196.834L71.9576 203.105L65.6865 195.632L73.1601 189.36L79.4312 196.834ZM71.9576 203.105L64.484 209.376L58.2129 201.903L65.6865 195.632L71.9576 203.105ZM64.484 209.376L57.0104 215.647L50.7393 208.174L58.2129 201.903L64.484 209.376ZM78.2287 210.579L70.7551 216.85L64.484 209.376L71.9576 203.105L78.2287 210.579ZM85.7023 204.308L78.2287 210.579L71.9576 203.105L79.4312 196.834L85.7023 204.308ZM165.248 86.6178L157.775 92.889L151.504 85.4154L158.977 79.1442L165.248 86.6178ZM158.977 79.1442L151.504 85.4154L145.233 77.9418L152.706 71.6706L158.977 79.1442ZM152.706 71.6706L145.233 77.9418L138.961 70.4681L146.435 64.197L152.706 71.6706ZM146.435 64.197L138.961 70.4681L132.69 62.9945L140.164 56.7234L146.435 64.197ZM138.961 70.4681L131.488 76.7392L125.217 69.2656L132.69 62.9945L138.961 70.4681ZM131.488 76.7392L124.014 83.0103L117.743 75.5367L125.217 69.2656L131.488 76.7392ZM124.014 83.0103L116.541 89.2814L110.27 81.8078L117.743 75.5367L124.014 83.0103ZM116.541 89.2814L109.067 95.5525L102.796 88.0789L110.27 81.8078L116.541 89.2814ZM122.812 96.755L115.338 103.026L109.067 95.5525L116.541 89.2814L122.812 96.755ZM129.083 104.229L121.609 110.5L115.338 103.026L122.812 96.755L129.083 104.229ZM135.354 111.702L127.88 117.973L121.609 110.5L129.083 104.229L135.354 111.702ZM142.828 105.431L135.354 111.702L129.083 104.229L136.556 97.9576L142.828 105.431ZM150.301 99.1601L142.828 105.431L136.556 97.9576L144.03 91.6864L150.301 99.1601ZM157.775 92.889L150.301 99.1601L144.03 91.6864L151.504 85.4154L157.775 92.889ZM151.504 85.4154L144.03 91.6864L137.759 84.2128L145.233 77.9418L151.504 85.4154ZM145.233 77.9418L137.759 84.2128L131.488 76.7392L138.961 70.4681L145.233 77.9418ZM137.759 84.2128L130.285 90.484L124.014 83.0103L131.488 76.7392L137.759 84.2128ZM130.285 90.484L122.812 96.755L116.541 89.2814L124.014 83.0103L130.285 90.484ZM136.556 97.9576L129.083 104.229L122.812 96.755L130.285 90.484L136.556 97.9576ZM144.03 91.6864L136.556 97.9576L130.285 90.484L137.759 84.2128L144.03 91.6864Z" fill="white"/>
</g>
<defs>
<linearGradient id="paint0_linear_4114_33" x1="100" y1="0" x2="100" y2="200" gradientUnits="userSpaceOnUse">
<stop stop-color="#400EB7"/>
<stop offset="1" stop-color="#220761"/>
</linearGradient>
<clipPath id="clip0_4114_33">
<rect width="200" height="200" rx="40" fill="white"/>
</clipPath>
</defs>
</svg>
