<svg width="200" height="200" viewBox="0 0 200 200" fill="none" xmlns="http://www.w3.org/2000/svg">
<g clip-path="url(#clip0_4105_4)">
<rect width="200" height="200" rx="40" fill="url(#paint0_linear_4105_4)"/>
<mask id="path-2-inside-1_4105_4" fill="white">
<path fill-rule="evenodd" clip-rule="evenodd" d="M37.6458 26.0083C26.6001 26.0083 17.6458 34.9627 17.6458 46.0083L17.6458 71.8275C17.6454 72.4009 17.6454 72.9899 17.6454 73.5953L17.6454 144.582C17.6454 155.783 17.6454 161.384 19.8253 165.662C21.7428 169.425 24.8024 172.485 28.5656 174.402C32.8439 176.582 38.4444 176.582 49.6454 176.582L152.354 176.582C163.555 176.582 169.156 176.582 173.434 174.402C177.197 172.485 180.257 169.425 182.174 165.662C184.354 161.384 184.354 155.783 184.354 144.582L184.354 73.5953C184.354 62.3943 184.354 56.7938 182.174 52.5155C180.257 48.7523 177.197 45.6927 173.434 43.7752C169.156 41.5953 163.555 41.5953 152.354 41.5953L113.83 41.5953C111.844 41.5953 110.851 41.5953 109.52 41.2202C108.19 40.8451 101.711 36.8769 88.7521 28.9405C85.7152 27.0805 82.1434 26.0083 78.3212 26.0083L37.6458 26.0083Z"/>
</mask>
<path fill-rule="evenodd" clip-rule="evenodd" d="M37.6458 26.0083C26.6001 26.0083 17.6458 34.9627 17.6458 46.0083L17.6458 71.8275C17.6454 72.4009 17.6454 72.9899 17.6454 73.5953L17.6454 144.582C17.6454 155.783 17.6454 161.384 19.8253 165.662C21.7428 169.425 24.8024 172.485 28.5656 174.402C32.8439 176.582 38.4444 176.582 49.6454 176.582L152.354 176.582C163.555 176.582 169.156 176.582 173.434 174.402C177.197 172.485 180.257 169.425 182.174 165.662C184.354 161.384 184.354 155.783 184.354 144.582L184.354 73.5953C184.354 62.3943 184.354 56.7938 182.174 52.5155C180.257 48.7523 177.197 45.6927 173.434 43.7752C169.156 41.5953 163.555 41.5953 152.354 41.5953L113.83 41.5953C111.844 41.5953 110.851 41.5953 109.52 41.2202C108.19 40.8451 101.711 36.8769 88.7521 28.9405C85.7152 27.0805 82.1434 26.0083 78.3212 26.0083L37.6458 26.0083Z" fill="#D9D9D9"/>
<path fill-rule="evenodd" clip-rule="evenodd" d="M37.6458 26.0083C26.6001 26.0083 17.6458 34.9627 17.6458 46.0083L17.6458 71.8275C17.6454 72.4009 17.6454 72.9899 17.6454 73.5953L17.6454 144.582C17.6454 155.783 17.6454 161.384 19.8253 165.662C21.7428 169.425 24.8024 172.485 28.5656 174.402C32.8439 176.582 38.4444 176.582 49.6454 176.582L152.354 176.582C163.555 176.582 169.156 176.582 173.434 174.402C177.197 172.485 180.257 169.425 182.174 165.662C184.354 161.384 184.354 155.783 184.354 144.582L184.354 73.5953C184.354 62.3943 184.354 56.7938 182.174 52.5155C180.257 48.7523 177.197 45.6927 173.434 43.7752C169.156 41.5953 163.555 41.5953 152.354 41.5953L113.83 41.5953C111.844 41.5953 110.851 41.5953 109.52 41.2202C108.19 40.8451 101.711 36.8769 88.7521 28.9405C85.7152 27.0805 82.1434 26.0083 78.3212 26.0083L37.6458 26.0083Z" fill="url(#paint1_radial_4105_4)"/>
<path d="M17.6458 46.0083L21.0887 46.0083L17.6458 46.0083ZM17.6458 71.8275L21.0887 71.8296L21.0887 71.8275L17.6458 71.8275ZM19.8253 165.662L22.893 164.099L22.893 164.099L19.8253 165.662ZM28.5656 174.402L30.1287 171.335L30.1287 171.335L28.5656 174.402ZM173.434 174.402L171.871 171.335L171.871 171.335L173.434 174.402ZM182.174 165.662L179.107 164.099L179.107 164.099L182.174 165.662ZM184.354 144.582L180.911 144.582L184.354 144.582ZM184.354 73.5953L187.797 73.5953L184.354 73.5953ZM182.174 52.5155L179.107 54.0786L179.107 54.0786L182.174 52.5155ZM173.434 43.7752L171.871 46.8429L171.871 46.8429L173.434 43.7752ZM109.52 41.2202L110.455 37.9064L110.455 37.9064L109.52 41.2202ZM21.0887 46.0083C21.0887 36.8641 28.5016 29.4513 37.6458 29.4513L37.6458 22.5654C24.6986 22.5654 14.2028 33.0612 14.2028 46.0083L21.0887 46.0083ZM21.0887 71.8275L21.0887 46.0083L14.2028 46.0083L14.2028 71.8275L21.0887 71.8275ZM21.0884 73.5953C21.0884 72.9897 21.0884 72.4017 21.0887 71.8296L14.2028 71.8254C14.2025 72.4 14.2025 72.9901 14.2025 73.5953L21.0884 73.5953ZM21.0884 144.582L21.0884 73.5953L14.2025 73.5953L14.2025 144.582L21.0884 144.582ZM22.893 164.099C22.0916 162.526 21.6045 160.56 21.3494 157.438C21.0911 154.275 21.0884 150.239 21.0884 144.582L14.2025 144.582C14.2025 150.126 14.1998 154.491 14.4864 157.998C14.7763 161.546 15.3792 164.52 16.7576 167.225L22.893 164.099ZM30.1287 171.335C27.0133 169.747 24.4804 167.214 22.893 164.099L16.7576 167.225C19.0052 171.636 22.5915 175.222 27.0026 177.47L30.1287 171.335ZM49.6454 173.139C43.9881 173.139 39.9522 173.136 36.7898 172.878C33.6677 172.623 31.7016 172.136 30.1287 171.335L27.0026 177.47C29.7079 178.848 32.6812 179.451 36.2291 179.741C39.7369 180.028 44.1017 180.025 49.6454 180.025L49.6454 173.139ZM152.354 173.139L49.6454 173.139L49.6454 180.025L152.354 180.025L152.354 173.139ZM171.871 171.335C170.298 172.136 168.332 172.623 165.21 172.878C162.048 173.136 158.012 173.139 152.354 173.139L152.354 180.025C157.898 180.025 162.263 180.028 165.771 179.741C169.319 179.451 172.292 178.848 174.997 177.47L171.871 171.335ZM179.107 164.099C177.519 167.214 174.987 169.747 171.871 171.335L174.997 177.47C179.408 175.222 182.995 171.636 185.242 167.225L179.107 164.099ZM180.911 144.582C180.911 150.239 180.909 154.275 180.65 157.438C180.395 160.56 179.908 162.526 179.107 164.099L185.242 167.225C186.621 164.52 187.223 161.546 187.513 157.998C187.8 154.491 187.797 150.126 187.797 144.582L180.911 144.582ZM180.911 73.5953L180.911 144.582L187.797 144.582L187.797 73.5953L180.911 73.5953ZM179.107 54.0786C179.908 55.6514 180.395 57.6176 180.65 60.7397C180.909 63.9021 180.911 67.938 180.911 73.5953L187.797 73.5953C187.797 68.0516 187.8 63.6868 187.513 60.179C187.223 56.631 186.621 53.6578 185.242 50.9525L179.107 54.0786ZM171.871 46.8429C174.987 48.4303 177.519 50.9632 179.107 54.0786L185.242 50.9525C182.995 46.5414 179.408 42.9551 174.997 40.7075L171.871 46.8429ZM152.354 45.0383C158.012 45.0383 162.048 45.0409 165.21 45.2993C168.332 45.5544 170.298 46.0415 171.871 46.8429L174.997 40.7075C172.292 39.3291 169.319 38.7262 165.771 38.4363C162.263 38.1497 157.898 38.1524 152.354 38.1524L152.354 45.0383ZM113.83 45.0383L152.354 45.0383L152.354 38.1524L113.83 38.1524L113.83 45.0383ZM78.3212 29.4513C81.4909 29.4513 84.4427 30.3386 86.954 31.8766L90.5503 26.0045C86.9876 23.8225 82.796 22.5654 78.3212 22.5654L78.3212 29.4513ZM37.6458 29.4513L78.3212 29.4513L78.3212 22.5654L37.6458 22.5654L37.6458 29.4513ZM113.83 38.1524C111.776 38.1524 111.256 38.1322 110.455 37.9064L108.586 44.534C110.447 45.0584 111.912 45.0383 113.83 45.0383L113.83 38.1524ZM86.954 31.8766C93.4246 35.8395 98.3055 38.8289 101.733 40.873C103.445 41.8937 104.826 42.6974 105.876 43.2756C106.781 43.7739 107.799 44.3121 108.586 44.534L110.455 37.9064C110.576 37.9408 110.285 37.8423 109.196 37.2431C108.253 36.7237 106.954 35.9691 105.26 34.9588C101.876 32.9408 97.0381 29.9779 90.5503 26.0045L86.954 31.8766Z" fill="url(#paint2_linear_4105_4)" mask="url(#path-2-inside-1_4105_4)"/>
<path d="M17.6458 46.0083L21.0887 46.0083L17.6458 46.0083ZM17.6458 71.8275L21.0887 71.8296L21.0887 71.8275L17.6458 71.8275ZM19.8253 165.662L22.893 164.099L22.893 164.099L19.8253 165.662ZM28.5656 174.402L30.1287 171.335L30.1287 171.335L28.5656 174.402ZM173.434 174.402L171.871 171.335L171.871 171.335L173.434 174.402ZM182.174 165.662L179.107 164.099L179.107 164.099L182.174 165.662ZM184.354 144.582L180.911 144.582L184.354 144.582ZM184.354 73.5953L187.797 73.5953L184.354 73.5953ZM182.174 52.5155L179.107 54.0786L179.107 54.0786L182.174 52.5155ZM173.434 43.7752L171.871 46.8429L171.871 46.8429L173.434 43.7752ZM109.52 41.2202L110.455 37.9064L110.455 37.9064L109.52 41.2202ZM21.0887 46.0083C21.0887 36.8641 28.5016 29.4513 37.6458 29.4513L37.6458 22.5654C24.6986 22.5654 14.2028 33.0612 14.2028 46.0083L21.0887 46.0083ZM21.0887 71.8275L21.0887 46.0083L14.2028 46.0083L14.2028 71.8275L21.0887 71.8275ZM21.0884 73.5953C21.0884 72.9897 21.0884 72.4017 21.0887 71.8296L14.2028 71.8254C14.2025 72.4 14.2025 72.9901 14.2025 73.5953L21.0884 73.5953ZM21.0884 144.582L21.0884 73.5953L14.2025 73.5953L14.2025 144.582L21.0884 144.582ZM22.893 164.099C22.0916 162.526 21.6045 160.56 21.3494 157.438C21.0911 154.275 21.0884 150.239 21.0884 144.582L14.2025 144.582C14.2025 150.126 14.1998 154.491 14.4864 157.998C14.7763 161.546 15.3792 164.52 16.7576 167.225L22.893 164.099ZM30.1287 171.335C27.0133 169.747 24.4804 167.214 22.893 164.099L16.7576 167.225C19.0052 171.636 22.5915 175.222 27.0026 177.47L30.1287 171.335ZM49.6454 173.139C43.9881 173.139 39.9522 173.136 36.7898 172.878C33.6677 172.623 31.7016 172.136 30.1287 171.335L27.0026 177.47C29.7079 178.848 32.6812 179.451 36.2291 179.741C39.7369 180.028 44.1017 180.025 49.6454 180.025L49.6454 173.139ZM152.354 173.139L49.6454 173.139L49.6454 180.025L152.354 180.025L152.354 173.139ZM171.871 171.335C170.298 172.136 168.332 172.623 165.21 172.878C162.048 173.136 158.012 173.139 152.354 173.139L152.354 180.025C157.898 180.025 162.263 180.028 165.771 179.741C169.319 179.451 172.292 178.848 174.997 177.47L171.871 171.335ZM179.107 164.099C177.519 167.214 174.987 169.747 171.871 171.335L174.997 177.47C179.408 175.222 182.995 171.636 185.242 167.225L179.107 164.099ZM180.911 144.582C180.911 150.239 180.909 154.275 180.65 157.438C180.395 160.56 179.908 162.526 179.107 164.099L185.242 167.225C186.621 164.52 187.223 161.546 187.513 157.998C187.8 154.491 187.797 150.126 187.797 144.582L180.911 144.582ZM180.911 73.5953L180.911 144.582L187.797 144.582L187.797 73.5953L180.911 73.5953ZM179.107 54.0786C179.908 55.6514 180.395 57.6176 180.65 60.7397C180.909 63.9021 180.911 67.938 180.911 73.5953L187.797 73.5953C187.797 68.0516 187.8 63.6868 187.513 60.179C187.223 56.631 186.621 53.6578 185.242 50.9525L179.107 54.0786ZM171.871 46.8429C174.987 48.4303 177.519 50.9632 179.107 54.0786L185.242 50.9525C182.995 46.5414 179.408 42.9551 174.997 40.7075L171.871 46.8429ZM152.354 45.0383C158.012 45.0383 162.048 45.0409 165.21 45.2993C168.332 45.5544 170.298 46.0415 171.871 46.8429L174.997 40.7075C172.292 39.3291 169.319 38.7262 165.771 38.4363C162.263 38.1497 157.898 38.1524 152.354 38.1524L152.354 45.0383ZM113.83 45.0383L152.354 45.0383L152.354 38.1524L113.83 38.1524L113.83 45.0383ZM78.3212 29.4513C81.4909 29.4513 84.4427 30.3386 86.954 31.8766L90.5503 26.0045C86.9876 23.8225 82.796 22.5654 78.3212 22.5654L78.3212 29.4513ZM37.6458 29.4513L78.3212 29.4513L78.3212 22.5654L37.6458 22.5654L37.6458 29.4513ZM113.83 38.1524C111.776 38.1524 111.256 38.1322 110.455 37.9064L108.586 44.534C110.447 45.0584 111.912 45.0383 113.83 45.0383L113.83 38.1524ZM86.954 31.8766C93.4246 35.8395 98.3055 38.8289 101.733 40.873C103.445 41.8937 104.826 42.6974 105.876 43.2756C106.781 43.7739 107.799 44.3121 108.586 44.534L110.455 37.9064C110.576 37.9408 110.285 37.8423 109.196 37.2431C108.253 36.7237 106.954 35.9691 105.26 34.9588C101.876 32.9408 97.0381 29.9779 90.5503 26.0045L86.954 31.8766Z" fill="url(#paint3_linear_4105_4)" mask="url(#path-2-inside-1_4105_4)"/>
<g filter="url(#filter0_d_4105_4)">
<path d="M17.6456 106.684C17.6456 91.6231 17.6375 84.063 20.5682 78.3106C23.1461 73.2506 27.26 69.1376 32.3194 66.5594C38.0712 63.6283 45.6338 63.6368 60.6928 63.6368L141.307 63.6368C156.366 63.6368 163.929 63.6283 169.681 66.5594C174.74 69.1376 178.854 73.2506 181.432 78.3106C184.363 84.063 184.355 91.6231 184.355 106.684L184.355 133.535C184.355 148.596 184.363 156.156 181.432 161.909C178.854 166.969 174.74 171.082 169.681 173.66C163.929 176.591 156.366 176.582 141.307 176.582L60.6928 176.582C45.6338 176.582 38.0712 176.591 32.3194 173.66C27.26 171.082 23.1461 166.969 20.5682 161.909C17.6375 156.156 17.6456 148.596 17.6456 133.535L17.6456 106.684Z" fill="url(#paint4_radial_4105_4)"/>
<path d="M60.6928 65.3582L141.307 65.3582L141.357 65.3582C148.89 65.3582 154.449 65.3582 158.845 65.7148C163.232 66.0705 166.308 66.7725 168.899 68.0932C173.635 70.5064 177.485 74.3561 179.898 79.092C181.219 81.6841 181.921 84.7596 182.276 89.1458C182.633 93.5432 182.633 99.1034 182.633 106.641L182.633 106.684L182.633 133.535L182.633 133.579C182.633 141.116 182.633 146.676 182.276 151.073C181.921 155.46 181.219 158.535 179.898 161.127C177.485 165.863 173.635 169.713 168.899 172.126C166.308 173.447 163.232 174.149 158.845 174.504C154.449 174.861 148.89 174.861 141.356 174.861L141.307 174.861L60.6928 174.861L60.6436 174.861C53.1103 174.861 47.5516 174.861 43.155 174.504C38.7684 174.149 35.6926 173.447 33.101 172.126C28.3653 169.713 24.5148 165.863 22.1021 161.127C20.7815 158.535 20.0795 155.46 19.7237 151.073C19.3671 146.676 19.3671 141.116 19.3671 133.579L19.3671 133.535L19.3671 106.684L19.3671 106.64C19.3671 99.1032 19.3671 93.5431 19.7237 89.1458C20.0795 84.7596 20.7815 81.6841 22.1021 79.092C24.5148 74.3561 28.3653 70.5064 33.101 68.0932C35.6926 66.7725 38.7684 66.0705 43.155 65.7148C47.5516 65.3582 53.1102 65.3582 60.6434 65.3582L60.6928 65.3582Z" stroke="url(#paint5_linear_4105_4)" stroke-width="3.44294"/>
</g>
</g>
<defs>
<filter id="filter0_d_4105_4" x="7.6456" y="43.6368" width="186.709" height="132.946" filterUnits="userSpaceOnUse" color-interpolation-filters="sRGB">
<feFlood flood-opacity="0" result="BackgroundImageFix"/>
<feColorMatrix in="SourceAlpha" type="matrix" values="0 0 0 0 0 0 0 0 0 0 0 0 0 0 0 0 0 0 127 0" result="hardAlpha"/>
<feOffset dy="-10"/>
<feGaussianBlur stdDeviation="5"/>
<feComposite in2="hardAlpha" operator="out"/>
<feColorMatrix type="matrix" values="0 0 0 0 0 0 0 0 0 0 0 0 0 0 0 0 0 0 0.25 0"/>
<feBlend mode="normal" in2="BackgroundImageFix" result="effect1_dropShadow_4105_4"/>
<feBlend mode="normal" in="SourceGraphic" in2="effect1_dropShadow_4105_4" result="shape"/>
</filter>
<linearGradient id="paint0_linear_4105_4" x1="100" y1="0" x2="100" y2="200" gradientUnits="userSpaceOnUse">
<stop stop-color="#EAE0DD"/>
<stop offset="1" stop-color="#DADADA"/>
</linearGradient>
<radialGradient id="paint1_radial_4105_4" cx="0" cy="0" r="1" gradientUnits="userSpaceOnUse" gradientTransform="translate(184.354 176.593) rotate(-136.003) scale(224.264 239.583)">
<stop stop-color="#0068E7"/>
<stop offset="1" stop-color="#158DEF"/>
</radialGradient>
<linearGradient id="paint2_linear_4105_4" x1="17.6454" y1="26.0084" x2="178.608" y2="190.021" gradientUnits="userSpaceOnUse">
<stop offset="0.508799" stop-color="#85BFF8"/>
<stop offset="1" stop-color="#1050A9"/>
</linearGradient>
<linearGradient id="paint3_linear_4105_4" x1="17.6454" y1="26.0084" x2="203.826" y2="154.697" gradientUnits="userSpaceOnUse">
<stop offset="0.228092" stop-color="#85BFF8"/>
<stop offset="0.99027" stop-color="#0567E4"/>
</linearGradient>
<radialGradient id="paint4_radial_4105_4" cx="0" cy="0" r="1" gradientUnits="userSpaceOnUse" gradientTransform="translate(184.355 176.582) rotate(-145.882) scale(201.367 249.512)">
<stop stop-color="#0164E3"/>
<stop offset="1" stop-color="#3394F0"/>
<stop offset="1" stop-color="#3394F0"/>
</radialGradient>
<linearGradient id="paint5_linear_4105_4" x1="17.6456" y1="63.6368" x2="166.425" y2="200.744" gradientUnits="userSpaceOnUse">
<stop offset="0.228092" stop-color="#85BFF8"/>
<stop offset="0.946844" stop-color="#0567E4"/>
</linearGradient>
<clipPath id="clip0_4105_4">
<rect width="200" height="200" rx="40" fill="white"/>
</clipPath>
</defs>
</svg>
